<svg width="38" height="38" viewBox="0 0 38 38" fill="none" xmlns="http://www.w3.org/2000/svg">
<g opacity="0.8">
<path d="M14.7407 23.2752L17.1157 25.6502L23.4491 19.3169" stroke="#FFFBFF" stroke-width="1.5" stroke-linecap="round" stroke-linejoin="round"/>
<path d="M17.3533 3.1665H15.8333C14.25 3.1665 12.6667 3.1665 12.6667 6.33317C12.6667 9.49984 14.25 9.49984 15.8333 9.49984H22.1667C25.3333 9.49984 25.3333 7.9165 25.3333 6.33317C25.3333 3.1665 23.75 3.1665 22.1667 3.1665M4.75 15.8332C4.75 8.61317 7.39417 6.64984 12.6667 6.36484" stroke="#FFFBFF" stroke-width="1.5" stroke-miterlimit="10" stroke-linecap="round" stroke-linejoin="round"/>
<path d="M25.3333 6.36523C30.6058 6.65023 33.25 8.59773 33.25 15.8336V25.3336C33.25 31.6669 31.6667 34.8336 23.75 34.8336H14.25C6.33333 34.8336 4.75 31.6669 4.75 25.3336V22.0244" stroke="#FFFBFF" stroke-width="1.5" stroke-miterlimit="10" stroke-linecap="round" stroke-linejoin="round"/>
</g>
</svg>
