<svg id="ezqFpXfsJPu1" xmlns="http://www.w3.org/2000/svg" xmlns:xlink="http://www.w3.org/1999/xlink" viewBox="0 0 1000 1000" shape-rendering="geometricPrecision" text-rendering="geometricPrecision"><g transform="translate(-63.76001-35.999985)"><g><line x1="772.1" y1="683.18" x2="772.07" y2="729.3" fill="none" stroke="#e91d38" stroke-width="6" stroke-miterlimit="10"/><line x1="772.07" y1="525.59" x2="772.1" y2="594.79" fill="none" stroke="#e91d38" stroke-width="6" stroke-miterlimit="10"/><line x1="772.07" y1="463.78" x2="772.07" y2="498.11" fill="none" stroke="#e91d38" stroke-width="6" stroke-miterlimit="10"/><line x1="772.07" y1="433.06" x2="772.07" y2="463.78" fill="none" stroke="#e91d38" stroke-width="6" stroke-miterlimit="10"/><line x1="772.07" y1="390.08" x2="772.07" y2="416.56" fill="none" stroke="#e91d38" stroke-width="6" stroke-miterlimit="10"/><line x1="759.06" y1="345.04" x2="772.13" y2="345.04" fill="none" stroke="#e91d38" stroke-width="6" stroke-miterlimit="10"/><line x1="801.38" y1="321.28" x2="756.08" y2="321.28" fill="none" stroke="#e91d38" stroke-width="6" stroke-miterlimit="10"/><line x1="784.93" y1="574.7" x2="784.94" y2="525.83" fill="none" stroke="#e91d38" stroke-width="6" stroke-miterlimit="10"/><line x1="784.93" y1="585.36" x2="784.93" y2="563.01" fill="none" stroke="#e91d38" stroke-width="6" stroke-miterlimit="10"/><line x1="784.88" y1="438.65" x2="784.88" y2="483.23" fill="none" stroke="#e91d38" stroke-width="6" stroke-miterlimit="10"/><line x1="770" y1="355.73" x2="770" y2="381.52" fill="none" stroke="#e91d38" stroke-width="6" stroke-miterlimit="10"/><line x1="784.94" y1="297.51" x2="755.05" y2="297.51" fill="none" stroke="#e91d38" stroke-width="6" stroke-miterlimit="10"/><line x1="797.69" y1="667.39" x2="797.69" y2="721.32" fill="none" stroke="#e91d38" stroke-width="6" stroke-miterlimit="10"/><line x1="797.69" y1="530.87" x2="797.69" y2="570.6" fill="none" stroke="#e91d38" stroke-width="6" stroke-miterlimit="10"/><line x1="797.69" y1="457.84" x2="797.69" y2="485.27" fill="none" stroke="#e91d38" stroke-width="6" stroke-miterlimit="10"/><line x1="797.69" y1="399.24" x2="797.69" y2="440.01" fill="none" stroke="#e91d38" stroke-width="6" stroke-miterlimit="10"/><line x1="810.7" y1="295.35" x2="810.76" y2="314.08" fill="none" stroke="#e91d38" stroke-width="6" stroke-miterlimit="10"/><line x1="810.5" y1="690.31" x2="810.5" y2="721.32" fill="none" stroke="#e91d38" stroke-width="6" stroke-miterlimit="10"/><line x1="810.5" y1="654.97" x2="810.57" y2="671.52" fill="none" stroke="#e91d38" stroke-width="6" stroke-miterlimit="10"/><line x1="810.5" y1="498.83" x2="810.57" y2="557.15" fill="none" stroke="#e91d38" stroke-width="6" stroke-miterlimit="10"/><line x1="810.57" y1="333.16" x2="810.5" y2="354.65" fill="none" stroke="#e91d38" stroke-width="6" stroke-miterlimit="10"/><line x1="810.57" y1="323.32" x2="810.57" y2="333.16" fill="none" stroke="#e91d38" stroke-width="6" stroke-miterlimit="10"/><line x1="823.31" y1="693.28" x2="823.31" y2="721.32" fill="none" stroke="#e91d38" stroke-width="6" stroke-miterlimit="10"/><line x1="823.19" y1="547.01" x2="823.41" y2="519.53" fill="none" stroke="#e91d38" stroke-width="6" stroke-miterlimit="10"/><line x1="823.31" y1="496.47" x2="823.31" y2="511.99" fill="none" stroke="#e91d38" stroke-width="6" stroke-miterlimit="10"/><line x1="810.57" y1="354.7" x2="823.38" y2="420.82" fill="none" stroke="#e91d38" stroke-width="6" stroke-miterlimit="10"/><line x1="823.38" y1="336.7" x2="823.38" y2="370" fill="none" stroke="#e91d38" stroke-width="6" stroke-miterlimit="10"/><line x1="823.31" y1="295.35" x2="823.38" y2="330.76" fill="none" stroke="#e91d38" stroke-width="6" stroke-miterlimit="10"/><line x1="823.41" y1="649.55" x2="823.38" y2="668.16" fill="none" stroke="#e91d38" stroke-width="6" stroke-miterlimit="10"/><line x1="810.57" y1="690.36" x2="823.38" y2="676.08" fill="none" stroke="#e91d38" stroke-width="6" stroke-miterlimit="10"/><line x1="784.94" y1="721.32" x2="784.94" y2="690.36" fill="none" stroke="#e91d38" stroke-width="6" stroke-miterlimit="10"/><line x1="784.94" y1="525.83" x2="798.01" y2="503.87" fill="none" stroke="#e91d38" stroke-width="6" stroke-miterlimit="10"/><line x1="823.38" y1="478.67" x2="810.57" y2="422.5" fill="none" stroke="#e91d38" stroke-width="6" stroke-miterlimit="10"/><line x1="823.38" y1="496.43" x2="823.38" y2="478.67" fill="none" stroke="#e91d38" stroke-width="6" stroke-miterlimit="10"/><line x1="797.76" y1="399.22" x2="784.94" y2="358.9" fill="none" stroke="#e91d38" stroke-width="6" stroke-miterlimit="10"/><line x1="797.76" y1="329.26" x2="797.76" y2="358.9" fill="none" stroke="#e91d38" stroke-width="6" stroke-miterlimit="10"/><line x1="784.94" y1="433.06" x2="784.94" y2="420.82" fill="none" stroke="#e91d38" stroke-width="6" stroke-miterlimit="10"/><line x1="772.13" y1="433.06" x2="784.23" y2="421.84" fill="none" stroke="#e91d38" stroke-width="6" stroke-miterlimit="10"/><line x1="772.13" y1="525.59" x2="784.94" y2="504.23" fill="none" stroke="#e91d38" stroke-width="6" stroke-miterlimit="10"/><line x1="333.16" y1="297.39" x2="299.74" y2="297.45" fill="none" stroke="#e91d38" stroke-width="6" stroke-miterlimit="10"/><line x1="420.74" y1="309.4" x2="385.93" y2="297.45" fill="none" stroke="#e91d38" stroke-width="6" stroke-miterlimit="10"/><line x1="438.21" y1="297.45" x2="419.7" y2="297.45" fill="none" stroke="#e91d38" stroke-width="6" stroke-miterlimit="10"/><line x1="510.81" y1="297.45" x2="449.98" y2="297.45" fill="none" stroke="#e91d38" stroke-width="6" stroke-miterlimit="10"/><line x1="577.46" y1="297.45" x2="540.45" y2="297.45" fill="none" stroke="#e91d38" stroke-width="6" stroke-miterlimit="10"/><line x1="738.96" y1="297.45" x2="684.75" y2="297.43" fill="none" stroke="#e91d38" stroke-width="6" stroke-miterlimit="10"/><line x1="750.88" y1="297.45" x2="738.96" y2="297.45" fill="none" stroke="#e91d38" stroke-width="6" stroke-miterlimit="10"/><line x1="759.09" y1="297.45" x2="750.88" y2="297.45" fill="none" stroke="#e91d38" stroke-width="6" stroke-miterlimit="10"/><line x1="439.65" y1="309.34" x2="510.55" y2="309.4" fill="none" stroke="#e91d38" stroke-width="6" stroke-miterlimit="10"/><line x1="428.26" y1="309.34" x2="439.65" y2="309.34" fill="none" stroke="#e91d38" stroke-width="6" stroke-miterlimit="10"/><line x1="591.64" y1="309.33" x2="556.49" y2="309.34" fill="none" stroke="#e91d38" stroke-width="6" stroke-miterlimit="10"/><line x1="718.83" y1="309.34" x2="712.07" y2="309.34" fill="none" stroke="#e91d38" stroke-width="6" stroke-miterlimit="10"/><line x1="759.09" y1="309.34" x2="718.83" y2="309.34" fill="none" stroke="#e91d38" stroke-width="6" stroke-miterlimit="10"/><line x1="326.69" y1="321.16" x2="300.67" y2="321.16" fill="none" stroke="#e91d38" stroke-width="6" stroke-miterlimit="10"/><line x1="431.46" y1="321.22" x2="380.23" y2="321.22" fill="none" stroke="#e91d38" stroke-width="6" stroke-miterlimit="10"/><line x1="505.12" y1="321.22" x2="448.56" y2="321.22" fill="none" stroke="#e91d38" stroke-width="6" stroke-miterlimit="10"/><line x1="607.56" y1="321.22" x2="554.29" y2="321.22" fill="none" stroke="#e91d38" stroke-width="6" stroke-miterlimit="10"/><line x1="759.09" y1="321.22" x2="717.03" y2="321.22" fill="none" stroke="#e91d38" stroke-width="6" stroke-miterlimit="10"/><line x1="327.98" y1="333.04" x2="304.17" y2="333.04" fill="none" stroke="#e91d38" stroke-width="6" stroke-miterlimit="10"/><line x1="371.28" y1="333.1" x2="353.44" y2="333.16" fill="none" stroke="#e91d38" stroke-width="6" stroke-miterlimit="10"/><line x1="441.83" y1="333.1" x2="399.77" y2="333.1" fill="none" stroke="#e91d38" stroke-width="6" stroke-miterlimit="10"/><line x1="539.67" y1="333.1" x2="476.78" y2="333.16" fill="none" stroke="#e91d38" stroke-width="6" stroke-miterlimit="10"/><line x1="441.8" y1="344.98" x2="392.66" y2="344.98" fill="none" stroke="#e91d38" stroke-width="6" stroke-miterlimit="10"/><line x1="500.55" y1="344.98" x2="467.07" y2="344.98" fill="none" stroke="#e91d38" stroke-width="6" stroke-miterlimit="10"/><line x1="542.21" y1="344.98" x2="525.47" y2="344.98" fill="none" stroke="#e91d38" stroke-width="6" stroke-miterlimit="10"/><line x1="759.09" y1="344.98" x2="740.47" y2="345.01" fill="none" stroke="#e91d38" stroke-width="6" stroke-miterlimit="10"/><line x1="349.08" y1="297.51" x2="383.73" y2="309.28" fill="none" stroke="#e91d38" stroke-width="6" stroke-miterlimit="10"/><line x1="395.37" y1="345.04" x2="357.07" y2="345.04" fill="none" stroke="#e91d38" stroke-width="6" stroke-miterlimit="10"/><line x1="395.37" y1="345.04" x2="370.91" y2="333.16" fill="none" stroke="#e91d38" stroke-width="6" stroke-miterlimit="10"/><line x1="333.13" y1="333.16" x2="348.53" y2="345.04" fill="none" stroke="#e91d38" stroke-width="6" stroke-miterlimit="10"/><line x1="333.16" y1="333.16" x2="333.13" y2="309.4" fill="none" stroke="#e91d38" stroke-width="6" stroke-miterlimit="10"/><line x1="510.55" y1="309.4" x2="534.24" y2="321.52" fill="none" stroke="#e91d38" stroke-width="6" stroke-miterlimit="10"/><line x1="561.41" y1="345.04" x2="621.98" y2="333.16" fill="none" stroke="#e91d38" stroke-width="6" stroke-miterlimit="10"/><line x1="542.26" y1="345.04" x2="561.41" y2="345.04" fill="none" stroke="#e91d38" stroke-width="6" stroke-miterlimit="10"/><line x1="441.83" y1="333.16" x2="467.07" y2="345.04" fill="none" stroke="#e91d38" stroke-width="6" stroke-miterlimit="10"/><line x1="510.81" y1="297.51" x2="533.85" y2="309.4" fill="none" stroke="#e91d38" stroke-width="6" stroke-miterlimit="10"/><line x1="731.85" y1="333.12" x2="786.37" y2="333.16" fill="none" stroke="#e91d38" stroke-width="6" stroke-miterlimit="10"/><line x1="797.76" y1="309.4" x2="766.57" y2="309.4" fill="none" stroke="#e91d38" stroke-width="6" stroke-miterlimit="10"/><line x1="355.45" y1="374.75" x2="355.45" y2="350.68" fill="none" stroke="#e91d38" stroke-width="6" stroke-miterlimit="10"/><line x1="355.45" y1="546.41" x2="355.45" y2="480.77" fill="none" stroke="#e91d38" stroke-width="6" stroke-miterlimit="10"/><line x1="355.45" y1="608.22" x2="355.45" y2="573.89" fill="none" stroke="#e91d38" stroke-width="6" stroke-miterlimit="10"/><line x1="355.45" y1="638.94" x2="355.45" y2="608.22" fill="none" stroke="#e91d38" stroke-width="6" stroke-miterlimit="10"/><line x1="355.45" y1="681.92" x2="355.45" y2="655.44" fill="none" stroke="#e91d38" stroke-width="6" stroke-miterlimit="10"/><line x1="368.46" y1="726.96" x2="355.38" y2="726.96" fill="none" stroke="#e91d38" stroke-width="6" stroke-miterlimit="10"/><line x1="326.14" y1="750.72" x2="371.43" y2="750.72" fill="none" stroke="#e91d38" stroke-width="6" stroke-miterlimit="10"/><line x1="342.63" y1="501.48" x2="342.57" y2="546.17" fill="none" stroke="#e91d38" stroke-width="6" stroke-miterlimit="10"/><line x1="342.63" y1="488.15" x2="342.63" y2="511.94" fill="none" stroke="#e91d38" stroke-width="6" stroke-miterlimit="10"/><line x1="342.64" y1="633.35" x2="342.64" y2="588.77" fill="none" stroke="#e91d38" stroke-width="6" stroke-miterlimit="10"/><line x1="357.52" y1="716.27" x2="357.46" y2="693.72" fill="none" stroke="#e91d38" stroke-width="6" stroke-miterlimit="10"/><line x1="342.57" y1="774.49" x2="372.47" y2="774.49" fill="none" stroke="#e91d38" stroke-width="6" stroke-miterlimit="10"/><line x1="329.8" y1="397.72" x2="329.83" y2="350.68" fill="none" stroke="#e91d38" stroke-width="6" stroke-miterlimit="10"/><line x1="329.83" y1="541.13" x2="329.8" y2="497.38" fill="none" stroke="#e91d38" stroke-width="6" stroke-miterlimit="10"/><line x1="329.82" y1="614.16" x2="329.82" y2="586.73" fill="none" stroke="#e91d38" stroke-width="6" stroke-miterlimit="10"/><line x1="329.83" y1="672.76" x2="329.83" y2="631.99" fill="none" stroke="#e91d38" stroke-width="6" stroke-miterlimit="10"/><line x1="316.82" y1="776.65" x2="316.75" y2="757.92" fill="none" stroke="#e91d38" stroke-width="6" stroke-miterlimit="10"/><line x1="317.01" y1="381.69" x2="317.01" y2="350.68" fill="none" stroke="#e91d38" stroke-width="6" stroke-miterlimit="10"/><line x1="316.97" y1="409" x2="316.97" y2="390.54" fill="none" stroke="#e91d38" stroke-width="6" stroke-miterlimit="10"/><line x1="317.01" y1="573.17" x2="316.95" y2="514.85" fill="none" stroke="#e91d38" stroke-width="6" stroke-miterlimit="10"/><line x1="316.95" y1="738.84" x2="317.01" y2="717.35" fill="none" stroke="#e91d38" stroke-width="6" stroke-miterlimit="10"/><line x1="316.95" y1="748.68" x2="316.95" y2="738.84" fill="none" stroke="#e91d38" stroke-width="6" stroke-miterlimit="10"/><line x1="304.2" y1="378.72" x2="304.2" y2="350.68" fill="none" stroke="#e91d38" stroke-width="6" stroke-miterlimit="10"/><line x1="304.15" y1="546.4" x2="304.15" y2="519.33" fill="none" stroke="#e91d38" stroke-width="6" stroke-miterlimit="10"/><line x1="304.2" y1="575.53" x2="304.2" y2="560.01" fill="none" stroke="#e91d38" stroke-width="6" stroke-miterlimit="10"/><line x1="316.95" y1="717.3" x2="304.14" y2="651.18" fill="none" stroke="#e91d38" stroke-width="6" stroke-miterlimit="10"/><line x1="304.14" y1="735.3" x2="304.14" y2="702" fill="none" stroke="#e91d38" stroke-width="6" stroke-miterlimit="10"/><line x1="304.2" y1="776.65" x2="304.14" y2="741.24" fill="none" stroke="#e91d38" stroke-width="6" stroke-miterlimit="10"/><line x1="304.15" y1="418.84" x2="304.14" y2="403.84" fill="none" stroke="#e91d38" stroke-width="6" stroke-miterlimit="10"/><line x1="316.95" y1="381.64" x2="304.14" y2="395.92" fill="none" stroke="#e91d38" stroke-width="6" stroke-miterlimit="10"/><line x1="342.57" y1="350.68" x2="342.57" y2="381.64" fill="none" stroke="#e91d38" stroke-width="6" stroke-miterlimit="10"/><line x1="342.57" y1="546.17" x2="329.5" y2="568.13" fill="none" stroke="#e91d38" stroke-width="6" stroke-miterlimit="10"/><line x1="304.14" y1="593.33" x2="316.95" y2="649.5" fill="none" stroke="#e91d38" stroke-width="6" stroke-miterlimit="10"/><line x1="304.14" y1="575.57" x2="304.14" y2="593.33" fill="none" stroke="#e91d38" stroke-width="6" stroke-miterlimit="10"/><line x1="329.76" y1="672.78" x2="342.57" y2="713.1" fill="none" stroke="#e91d38" stroke-width="6" stroke-miterlimit="10"/><line x1="329.76" y1="742.74" x2="329.76" y2="713.1" fill="none" stroke="#e91d38" stroke-width="6" stroke-miterlimit="10"/><line x1="355.38" y1="681.9" x2="342.57" y2="661.38" fill="none" stroke="#e91d38" stroke-width="6" stroke-miterlimit="10"/><line x1="342.57" y1="638.94" x2="342.57" y2="651.18" fill="none" stroke="#e91d38" stroke-width="6" stroke-miterlimit="10"/><line x1="355.38" y1="638.94" x2="343.28" y2="650.16" fill="none" stroke="#e91d38" stroke-width="6" stroke-miterlimit="10"/><line x1="355.38" y1="546.41" x2="342.57" y2="567.77" fill="none" stroke="#e91d38" stroke-width="6" stroke-miterlimit="10"/><line x1="783" y1="774.55" x2="827.78" y2="774.55" fill="none" stroke="#e91d38" stroke-width="6" stroke-miterlimit="10"/><line x1="706.78" y1="762.6" x2="741.59" y2="774.55" fill="none" stroke="#e91d38" stroke-width="6" stroke-miterlimit="10"/><line x1="689.31" y1="774.55" x2="707.81" y2="774.55" fill="none" stroke="#e91d38" stroke-width="6" stroke-miterlimit="10"/><line x1="616.7" y1="774.55" x2="677.53" y2="774.55" fill="none" stroke="#e91d38" stroke-width="6" stroke-miterlimit="10"/><line x1="551.83" y1="774.65" x2="587.07" y2="774.55" fill="none" stroke="#e91d38" stroke-width="6" stroke-miterlimit="10"/><line x1="388.55" y1="774.55" x2="422.93" y2="774.55" fill="none" stroke="#e91d38" stroke-width="6" stroke-miterlimit="10"/><line x1="376.63" y1="774.55" x2="388.55" y2="774.55" fill="none" stroke="#e91d38" stroke-width="6" stroke-miterlimit="10"/><line x1="368.42" y1="774.55" x2="376.63" y2="774.55" fill="none" stroke="#e91d38" stroke-width="6" stroke-miterlimit="10"/><line x1="687.86" y1="762.66" x2="616.96" y2="762.6" fill="none" stroke="#e91d38" stroke-width="6" stroke-miterlimit="10"/><line x1="699.26" y1="762.66" x2="687.86" y2="762.66" fill="none" stroke="#e91d38" stroke-width="6" stroke-miterlimit="10"/><line x1="529.94" y1="762.75" x2="571.02" y2="762.67" fill="none" stroke="#e91d38" stroke-width="6" stroke-miterlimit="10"/><line x1="408.68" y1="762.66" x2="415.45" y2="762.66" fill="none" stroke="#e91d38" stroke-width="6" stroke-miterlimit="10"/><line x1="368.42" y1="762.66" x2="408.68" y2="762.66" fill="none" stroke="#e91d38" stroke-width="6" stroke-miterlimit="10"/><line x1="753.75" y1="750.78" x2="799.31" y2="750.78" fill="none" stroke="#e91d38" stroke-width="6" stroke-miterlimit="10"/><line x1="696.05" y1="750.78" x2="747.28" y2="750.78" fill="none" stroke="#e91d38" stroke-width="6" stroke-miterlimit="10"/><line x1="622.4" y1="750.78" x2="678.96" y2="750.78" fill="none" stroke="#e91d38" stroke-width="6" stroke-miterlimit="10"/><line x1="523.08" y1="749.42" x2="573.22" y2="750.78" fill="none" stroke="#e91d38" stroke-width="6" stroke-miterlimit="10"/><line x1="368.42" y1="750.79" x2="405.65" y2="750.86" fill="none" stroke="#e91d38" stroke-width="6" stroke-miterlimit="10"/><line x1="756.23" y1="738.9" x2="774.07" y2="738.84" fill="none" stroke="#e91d38" stroke-width="6" stroke-miterlimit="10"/><line x1="685.68" y1="738.9" x2="727.74" y2="738.9" fill="none" stroke="#e91d38" stroke-width="6" stroke-miterlimit="10"/><line x1="587.85" y1="738.9" x2="650.74" y2="738.84" fill="none" stroke="#e91d38" stroke-width="6" stroke-miterlimit="10"/><line x1="368.42" y1="738.91" x2="390.39" y2="738.96" fill="none" stroke="#e91d38" stroke-width="6" stroke-miterlimit="10"/><line x1="685.72" y1="727.02" x2="734.86" y2="727.02" fill="none" stroke="#e91d38" stroke-width="6" stroke-miterlimit="10"/><line x1="626.97" y1="727.02" x2="660.44" y2="727.02" fill="none" stroke="#e91d38" stroke-width="6" stroke-miterlimit="10"/><line x1="585.3" y1="727.02" x2="602.04" y2="727.02" fill="none" stroke="#e91d38" stroke-width="6" stroke-miterlimit="10"/><line x1="519.99" y1="724.2" x2="495.22" y2="725.63" fill="none" stroke="#e91d38" stroke-width="6" stroke-miterlimit="10"/><line x1="368.42" y1="727.02" x2="391.94" y2="727.02" fill="none" stroke="#e91d38" stroke-width="6" stroke-miterlimit="10"/><line x1="785.85" y1="774.61" x2="743.79" y2="762.72" fill="none" stroke="#e91d38" stroke-width="6" stroke-miterlimit="10"/><line x1="732.14" y1="726.96" x2="760.87" y2="727.02" fill="none" stroke="#e91d38" stroke-width="6" stroke-miterlimit="10"/><line x1="732.14" y1="726.96" x2="756.6" y2="738.84" fill="none" stroke="#e91d38" stroke-width="6" stroke-miterlimit="10"/><line x1="794.39" y1="738.84" x2="783.78" y2="714.3" fill="none" stroke="#e91d38" stroke-width="6" stroke-miterlimit="10"/><line x1="823.38" y1="763.02" x2="823.38" y2="735.06" fill="none" stroke="#e91d38" stroke-width="6" stroke-miterlimit="10"/><line x1="616.96" y1="762.6" x2="593.28" y2="750.48" fill="none" stroke="#e91d38" stroke-width="6" stroke-miterlimit="10"/><line x1="566.1" y1="726.96" x2="505.54" y2="738.84" fill="none" stroke="#e91d38" stroke-width="6" stroke-miterlimit="10"/><line x1="585.26" y1="726.96" x2="566.1" y2="726.96" fill="none" stroke="#e91d38" stroke-width="6" stroke-miterlimit="10"/><line x1="519.77" y1="784.9" x2="505.27" y2="771.47" fill="none" stroke="#e91d38" stroke-width="6" stroke-miterlimit="10"/><line x1="685.68" y1="738.84" x2="660.45" y2="726.96" fill="none" stroke="#e91d38" stroke-width="6" stroke-miterlimit="10"/><line x1="616.7" y1="774.49" x2="593.67" y2="762.6" fill="none" stroke="#e91d38" stroke-width="6" stroke-miterlimit="10"/><line x1="357.58" y1="738.84" x2="341.15" y2="738.84" fill="none" stroke="#e91d38" stroke-width="6" stroke-miterlimit="10"/><line x1="329.76" y1="762.6" x2="360.95" y2="762.6" fill="none" stroke="#e91d38" stroke-width="6" stroke-miterlimit="10"/><line x1="823.38" y1="726.54" x2="823.38" y2="742.02" fill="none" stroke="#e91d38" stroke-width="6" stroke-miterlimit="10"/><line x1="810.44" y1="729.3" x2="809.92" y2="762.66" fill="none" stroke="#e91d38" stroke-width="6" stroke-miterlimit="10"/><line x1="304.17" y1="333.04" x2="304.17" y2="353.44" fill="none" stroke="#e91d38" stroke-width="6" stroke-miterlimit="10"/><line x1="286.45" y1="552.34" x2="269.06" y2="536.37" fill="none" stroke="#e91d38" stroke-width="6" stroke-miterlimit="10"/><line x1="378.67" y1="637.65" x2="363.41" y2="623.5" fill="none" stroke="#e91d38" stroke-width="6" stroke-miterlimit="10"/><line x1="424.66" y1="680.17" x2="381.58" y2="640.35" fill="none" stroke="#e91d38" stroke-width="6" stroke-miterlimit="10"/><line x1="471.87" y1="723.8" x2="445.65" y2="699.57" fill="none" stroke="#e91d38" stroke-width="6" stroke-miterlimit="10"/><line x1="495.34" y1="745.49" x2="471.87" y2="723.8" fill="none" stroke="#e91d38" stroke-width="6" stroke-miterlimit="10"/><line x1="528.17" y1="775.83" x2="507.94" y2="757.13" fill="none" stroke="#e91d38" stroke-width="6" stroke-miterlimit="10"/><line x1="571.75" y1="799.08" x2="562.53" y2="807.67" fill="none" stroke="#e91d38" stroke-width="6" stroke-miterlimit="10"/><line x1="560.03" y1="843.65" x2="592" y2="813.9" fill="none" stroke="#e91d38" stroke-width="6" stroke-miterlimit="10"/><line x1="380.22" y1="655.91" x2="415.39" y2="688.46" fill="none" stroke="#e91d38" stroke-width="6" stroke-miterlimit="10"/><line x1="368.06" y1="644.63" x2="382.65" y2="658.16" fill="none" stroke="#e91d38" stroke-width="6" stroke-miterlimit="10"/><line x1="482.03" y1="749.96" x2="447.98" y2="718.49" fill="none" stroke="#e91d38" stroke-width="6" stroke-miterlimit="10"/><line x1="555.87" y1="798.72" x2="538.6" y2="782.84" fill="none" stroke="#e91d38" stroke-width="6" stroke-miterlimit="10"/><line x1="589.78" y1="849.63" x2="610.89" y2="829.99" fill="none" stroke="#e91d38" stroke-width="6" stroke-miterlimit="10"/><line x1="298.27" y1="596.9" x2="257.07" y2="558.83" fill="none" stroke="#e91d38" stroke-width="6" stroke-miterlimit="10"/><line x1="402.54" y1="693.27" x2="369.61" y2="662.88" fill="none" stroke="#e91d38" stroke-width="6" stroke-miterlimit="10"/><line x1="458.33" y1="744.83" x2="437.37" y2="725.47" fill="none" stroke="#e91d38" stroke-width="6" stroke-miterlimit="10"/><line x1="503.09" y1="786.19" x2="471.95" y2="757.41" fill="none" stroke="#e91d38" stroke-width="6" stroke-miterlimit="10"/><line x1="573.25" y1="868.07" x2="558.91" y2="854.9" fill="none" stroke="#e91d38" stroke-width="6" stroke-miterlimit="10"/><line x1="271.72" y1="589.14" x2="248.03" y2="567.25" fill="none" stroke="#e91d38" stroke-width="6" stroke-miterlimit="10"/><line x1="417.97" y1="724.31" x2="373.38" y2="683.18" fill="none" stroke="#e91d38" stroke-width="6" stroke-miterlimit="10"/><line x1="544.47" y1="841.3" x2="528.1" y2="826.09" fill="none" stroke="#e91d38" stroke-width="6" stroke-miterlimit="10"/><line x1="551.99" y1="848.24" x2="544.47" y2="841.3" fill="none" stroke="#e91d38" stroke-width="6" stroke-miterlimit="10"/><line x1="260.4" y1="595.46" x2="238.98" y2="575.66" fill="none" stroke="#e91d38" stroke-width="6" stroke-miterlimit="10"/><line x1="389.01" y1="714.41" x2="368.5" y2="695.28" fill="none" stroke="#e91d38" stroke-width="6" stroke-miterlimit="10"/><line x1="410.73" y1="734.39" x2="398.87" y2="723.43" fill="none" stroke="#e91d38" stroke-width="6" stroke-miterlimit="10"/><line x1="528.02" y1="826.09" x2="483.5" y2="803.36" fill="none" stroke="#e91d38" stroke-width="6" stroke-miterlimit="10"/><line x1="472.44" y1="791.46" x2="452.54" y2="772.8" fill="none" stroke="#e91d38" stroke-width="6" stroke-miterlimit="10"/><line x1="564.35" y1="876.36" x2="511.21" y2="827.08" fill="none" stroke="#e91d38" stroke-width="6" stroke-miterlimit="10"/><line x1="271.63" y1="589.15" x2="273.49" y2="607.64" fill="none" stroke="#e91d38" stroke-width="6" stroke-miterlimit="10"/><line x1="266.07" y1="550.46" x2="289.72" y2="572.32" fill="none" stroke="#e91d38" stroke-width="6" stroke-miterlimit="10"/><line x1="415.39" y1="688.46" x2="422.94" y2="712.55" fill="none" stroke="#e91d38" stroke-width="6" stroke-miterlimit="10"/><line x1="424.28" y1="747" x2="476.23" y2="778.23" fill="none" stroke="#e91d38" stroke-width="6" stroke-miterlimit="10"/><line x1="410.72" y1="734.46" x2="424.28" y2="747" fill="none" stroke="#e91d38" stroke-width="6" stroke-miterlimit="10"/><line x1="503.05" y1="786.25" x2="542.9" y2="806.3" fill="none" stroke="#e91d38" stroke-width="6" stroke-miterlimit="10"/><line x1="556.49" y1="835.64" x2="533.85" y2="814.71" fill="none" stroke="#e91d38" stroke-width="6" stroke-miterlimit="10"/><line x1="491.55" y1="759.07" x2="505.17" y2="771.57" fill="none" stroke="#e91d38" stroke-width="6" stroke-miterlimit="10"/><line x1="495.29" y1="745.53" x2="520.65" y2="768.9" fill="none" stroke="#e91d38" stroke-width="6" stroke-miterlimit="10"/><line x1="424.62" y1="680.21" x2="431.89" y2="703.71" fill="none" stroke="#e91d38" stroke-width="6" stroke-miterlimit="10"/><line x1="908.79" y1="552.97" x2="932.34" y2="530.98" fill="none" stroke="#e91d38" stroke-width="6" stroke-miterlimit="10"/><line x1="837.8" y1="602.02" x2="871.5" y2="587.59" fill="none" stroke="#e91d38" stroke-width="6" stroke-miterlimit="10"/><line x1="834.59" y1="621.93" x2="847.65" y2="609.77" fill="none" stroke="#e91d38" stroke-width="6" stroke-miterlimit="10"/><line x1="783.34" y1="669.61" x2="826.28" y2="629.66" fill="none" stroke="#e91d38" stroke-width="6" stroke-miterlimit="10"/><line x1="736.29" y1="713.39" x2="762.42" y2="689.08" fill="none" stroke="#e91d38" stroke-width="6" stroke-miterlimit="10"/><line x1="622.29" y1="819.47" x2="646.55" y2="796.89" fill="none" stroke="#e91d38" stroke-width="6" stroke-miterlimit="10"/><line x1="613.87" y1="827.3" x2="622.29" y2="819.47" fill="none" stroke="#e91d38" stroke-width="6" stroke-miterlimit="10"/><line x1="608.08" y1="832.69" x2="613.87" y2="827.3" fill="none" stroke="#e91d38" stroke-width="6" stroke-miterlimit="10"/><line x1="824.49" y1="614.49" x2="774.4" y2="661.02" fill="none" stroke="#e91d38" stroke-width="6" stroke-miterlimit="10"/><line x1="832.54" y1="607.01" x2="824.49" y2="614.49" fill="none" stroke="#e91d38" stroke-width="6" stroke-miterlimit="10"/><line x1="718.14" y1="713.53" x2="742.02" y2="691.23" fill="none" stroke="#e91d38" stroke-width="6" stroke-miterlimit="10"/><line x1="627.42" y1="797.86" x2="632.11" y2="793.51" fill="none" stroke="#e91d38" stroke-width="6" stroke-miterlimit="10"/><line x1="599" y1="824.3" x2="627.42" y2="797.86" fill="none" stroke="#e91d38" stroke-width="6" stroke-miterlimit="10"/><line x1="895.21" y1="531.95" x2="913.57" y2="514.86" fill="none" stroke="#e91d38" stroke-width="6" stroke-miterlimit="10"/><line x1="821.2" y1="600.72" x2="857.37" y2="567.07" fill="none" stroke="#e91d38" stroke-width="6" stroke-miterlimit="10"/><line x1="769.21" y1="649.1" x2="809.14" y2="611.95" fill="none" stroke="#e91d38" stroke-width="6" stroke-miterlimit="10"/><line x1="701.99" y1="711.69" x2="734.49" y2="681.4" fill="none" stroke="#e91d38" stroke-width="6" stroke-miterlimit="10"/><line x1="581.08" y1="824.74" x2="615.97" y2="792.28" fill="none" stroke="#e91d38" stroke-width="6" stroke-miterlimit="10"/><line x1="885.22" y1="524.41" x2="902.03" y2="508.77" fill="none" stroke="#e91d38" stroke-width="6" stroke-miterlimit="10"/><line x1="854.61" y1="552.81" x2="867.16" y2="541.05" fill="none" stroke="#e91d38" stroke-width="6" stroke-miterlimit="10"/><line x1="804.81" y1="599.15" x2="834.5" y2="571.52" fill="none" stroke="#e91d38" stroke-width="6" stroke-miterlimit="10"/><line x1="735.74" y1="663.41" x2="780.1" y2="622.06" fill="none" stroke="#e91d38" stroke-width="6" stroke-miterlimit="10"/><line x1="795.76" y1="590.74" x2="830.45" y2="558.46" fill="none" stroke="#e91d38" stroke-width="6" stroke-miterlimit="10"/><line x1="754.29" y1="629.33" x2="777.92" y2="607.34" fill="none" stroke="#e91d38" stroke-width="6" stroke-miterlimit="10"/><line x1="724.87" y1="656.69" x2="736.69" y2="645.7" fill="none" stroke="#e91d38" stroke-width="6" stroke-miterlimit="10"/><line x1="685.63" y1="685.64" x2="667.24" y2="710.23" fill="none" stroke="#e91d38" stroke-width="6" stroke-miterlimit="10"/><line x1="564.26" y1="807.35" x2="580.86" y2="791.9" fill="none" stroke="#e91d38" stroke-width="6" stroke-miterlimit="10"/><line x1="897.46" y1="563.34" x2="864.02" y2="577.8" fill="none" stroke="#e91d38" stroke-width="6" stroke-miterlimit="10"/><line x1="828.48" y1="560.2" x2="855.52" y2="535.04" fill="none" stroke="#e91d38" stroke-width="6" stroke-miterlimit="10"/><line x1="828.48" y1="560.2" x2="854.82" y2="552.52" fill="none" stroke="#e91d38" stroke-width="6" stroke-miterlimit="10"/><line x1="881.5" y1="527.7" x2="861.55" y2="529.43" fill="none" stroke="#e91d38" stroke-width="6" stroke-miterlimit="10"/><line x1="881.48" y1="527.73" x2="899.65" y2="544.48" fill="none" stroke="#e91d38" stroke-width="6" stroke-miterlimit="10"/><line x1="774.4" y1="661.02" x2="748.43" y2="668.01" fill="none" stroke="#e91d38" stroke-width="6" stroke-miterlimit="10"/><line x1="711.28" y1="669.26" x2="681.65" y2="711.69" fill="none" stroke="#e91d38" stroke-width="6" stroke-miterlimit="10"/><line x1="724.8" y1="656.68" x2="711.28" y2="669.26" fill="none" stroke="#e91d38" stroke-width="6" stroke-miterlimit="10"/><line x1="712.86" y1="735.11" x2="695.75" y2="735.14" fill="none" stroke="#e91d38" stroke-width="6" stroke-miterlimit="10"/><line x1="804.76" y1="599.11" x2="777.87" y2="607.29" fill="none" stroke="#e91d38" stroke-width="6" stroke-miterlimit="10"/><line x1="783.29" y1="669.57" x2="757.96" y2="676.32" fill="none" stroke="#e91d38" stroke-width="6" stroke-miterlimit="10"/><line x1="608.45" y1="783.87" x2="567.97" y2="817.81" fill="none" stroke="#e91d38" stroke-width="6" stroke-miterlimit="10"/><line x1="571.66" y1="849.66" x2="593.68" y2="829.17" fill="none" stroke="#e91d38" stroke-width="6" stroke-miterlimit="10"/><line x1="835.13" y1="514.2" x2="852.36" y2="530" fill="none" stroke="#e91d38" stroke-width="6" stroke-miterlimit="10"/><line x1="749.76" y1="435.24" x2="761.71" y2="446.32" fill="none" stroke="#e91d38" stroke-width="6" stroke-miterlimit="10"/><line x1="702.85" y1="391.83" x2="745.94" y2="431.65" fill="none" stroke="#e91d38" stroke-width="6" stroke-miterlimit="10"/><line x1="655.64" y1="348.2" x2="681.86" y2="372.43" fill="none" stroke="#e91d38" stroke-width="6" stroke-miterlimit="10"/><line x1="632.18" y1="326.51" x2="655.64" y2="348.2" fill="none" stroke="#e91d38" stroke-width="6" stroke-miterlimit="10"/><line x1="599.35" y1="296.17" x2="619.57" y2="314.87" fill="none" stroke="#e91d38" stroke-width="6" stroke-miterlimit="10"/><line x1="555.76" y1="272.92" x2="564.99" y2="264.33" fill="none" stroke="#e91d38" stroke-width="6" stroke-miterlimit="10"/><line x1="567.49" y1="228.35" x2="535.51" y2="258.1" fill="none" stroke="#e91d38" stroke-width="6" stroke-miterlimit="10"/><line x1="762.3" y1="429.99" x2="712.13" y2="383.54" fill="none" stroke="#e91d38" stroke-width="6" stroke-miterlimit="10"/><line x1="645.49" y1="322.04" x2="679.54" y2="353.51" fill="none" stroke="#e91d38" stroke-width="6" stroke-miterlimit="10"/><line x1="571.65" y1="273.28" x2="588.92" y2="289.16" fill="none" stroke="#e91d38" stroke-width="6" stroke-miterlimit="10"/><line x1="537.73" y1="222.37" x2="516.63" y2="242.01" fill="none" stroke="#e91d38" stroke-width="6" stroke-miterlimit="10"/><line x1="829.25" y1="475.1" x2="870.45" y2="513.17" fill="none" stroke="#e91d38" stroke-width="6" stroke-miterlimit="10"/><line x1="724.97" y1="378.73" x2="761.93" y2="412.89" fill="none" stroke="#e91d38" stroke-width="6" stroke-miterlimit="10"/><line x1="669.19" y1="327.17" x2="690.14" y2="346.53" fill="none" stroke="#e91d38" stroke-width="6" stroke-miterlimit="10"/><line x1="624.43" y1="285.81" x2="655.57" y2="314.59" fill="none" stroke="#e91d38" stroke-width="6" stroke-miterlimit="10"/><line x1="554.26" y1="203.93" x2="568.61" y2="217.1" fill="none" stroke="#e91d38" stroke-width="6" stroke-miterlimit="10"/><line x1="855.8" y1="482.86" x2="879.49" y2="504.75" fill="none" stroke="#e91d38" stroke-width="6" stroke-miterlimit="10"/><line x1="709.54" y1="347.69" x2="754.14" y2="388.82" fill="none" stroke="#e91d38" stroke-width="6" stroke-miterlimit="10"/><line x1="583.05" y1="230.7" x2="599.41" y2="245.91" fill="none" stroke="#e91d38" stroke-width="6" stroke-miterlimit="10"/><line x1="575.53" y1="223.76" x2="583.05" y2="230.7" fill="none" stroke="#e91d38" stroke-width="6" stroke-miterlimit="10"/><line x1="867.11" y1="476.54" x2="888.53" y2="496.34" fill="none" stroke="#e91d38" stroke-width="6" stroke-miterlimit="10"/><line x1="739.04" y1="358.03" x2="759.05" y2="376.59" fill="none" stroke="#e91d38" stroke-width="6" stroke-miterlimit="10"/><line x1="716.79" y1="337.61" x2="728.64" y2="348.57" fill="none" stroke="#e91d38" stroke-width="6" stroke-miterlimit="10"/><line x1="599.5" y1="245.91" x2="659.05" y2="284.17" fill="none" stroke="#e91d38" stroke-width="6" stroke-miterlimit="10"/><line x1="594.79" y1="224.79" x2="620.23" y2="248.3" fill="none" stroke="#e91d38" stroke-width="6" stroke-miterlimit="10"/><line x1="563.17" y1="195.64" x2="590.26" y2="220.59" fill="none" stroke="#e91d38" stroke-width="6" stroke-miterlimit="10"/><line x1="834.02" y1="445.91" x2="863.99" y2="473.7" fill="none" stroke="#e91d38" stroke-width="6" stroke-miterlimit="10"/><line x1="847.95" y1="475.44" x2="828.94" y2="457.8" fill="none" stroke="#e91d38" stroke-width="6" stroke-miterlimit="10"/><line x1="861.45" y1="521.54" x2="837.8" y2="499.68" fill="none" stroke="#e91d38" stroke-width="6" stroke-miterlimit="10"/><line x1="712.13" y1="383.54" x2="704.58" y2="359.45" fill="none" stroke="#e91d38" stroke-width="6" stroke-miterlimit="10"/><line x1="703.23" y1="325" x2="651.29" y2="293.77" fill="none" stroke="#e91d38" stroke-width="6" stroke-miterlimit="10"/><line x1="716.8" y1="337.54" x2="703.23" y2="325" fill="none" stroke="#e91d38" stroke-width="6" stroke-miterlimit="10"/><line x1="624.46" y1="285.75" x2="584.62" y2="265.7" fill="none" stroke="#e91d38" stroke-width="6" stroke-miterlimit="10"/><line x1="571.02" y1="236.36" x2="593.66" y2="257.29" fill="none" stroke="#e91d38" stroke-width="6" stroke-miterlimit="10"/><line x1="641.27" y1="318.06" x2="631.92" y2="309.42" fill="none" stroke="#e91d38" stroke-width="6" stroke-miterlimit="10"/><line x1="632.22" y1="326.47" x2="632.2" y2="310.6" fill="none" stroke="#e91d38" stroke-width="6" stroke-miterlimit="10"/><line x1="702.9" y1="391.79" x2="695.63" y2="368.29" fill="none" stroke="#e91d38" stroke-width="6" stroke-miterlimit="10"/><line x1="226.79" y1="511.61" x2="195.18" y2="541.02" fill="none" stroke="#e91d38" stroke-width="6" stroke-miterlimit="10"/><line x1="289.71" y1="469.98" x2="256.02" y2="484.41" fill="none" stroke="#e91d38" stroke-width="6" stroke-miterlimit="10"/><line x1="292.93" y1="450.07" x2="279.86" y2="462.23" fill="none" stroke="#e91d38" stroke-width="6" stroke-miterlimit="10"/><line x1="344.18" y1="402.39" x2="301.24" y2="442.34" fill="none" stroke="#e91d38" stroke-width="6" stroke-miterlimit="10"/><line x1="391.28" y1="358.55" x2="365.1" y2="382.92" fill="none" stroke="#e91d38" stroke-width="6" stroke-miterlimit="10"/><line x1="505.23" y1="252.53" x2="468.68" y2="286.56" fill="none" stroke="#e91d38" stroke-width="6" stroke-miterlimit="10"/><line x1="513.64" y1="244.7" x2="505.23" y2="252.53" fill="none" stroke="#e91d38" stroke-width="6" stroke-miterlimit="10"/><line x1="519.44" y1="239.31" x2="513.64" y2="244.7" fill="none" stroke="#e91d38" stroke-width="6" stroke-miterlimit="10"/><line x1="303.02" y1="457.51" x2="353.11" y2="410.98" fill="none" stroke="#e91d38" stroke-width="6" stroke-miterlimit="10"/><line x1="294.98" y1="464.99" x2="303.02" y2="457.51" fill="none" stroke="#e91d38" stroke-width="6" stroke-miterlimit="10"/><line x1="412.51" y1="355.68" x2="385.5" y2="380.77" fill="none" stroke="#e91d38" stroke-width="6" stroke-miterlimit="10"/><line x1="500.1" y1="274.14" x2="487.48" y2="285.74" fill="none" stroke="#e91d38" stroke-width="6" stroke-miterlimit="10"/><line x1="528.51" y1="247.7" x2="500.1" y2="274.14" fill="none" stroke="#e91d38" stroke-width="6" stroke-miterlimit="10"/><line x1="265.58" y1="509.18" x2="233.42" y2="539.1" fill="none" stroke="#e91d38" stroke-width="6" stroke-miterlimit="10"/><line x1="306.31" y1="471.28" x2="270.15" y2="504.93" fill="none" stroke="#e91d38" stroke-width="6" stroke-miterlimit="10"/><line x1="358.31" y1="422.9" x2="318.38" y2="460.05" fill="none" stroke="#e91d38" stroke-width="6" stroke-miterlimit="10"/><line x1="413.9" y1="371.17" x2="393.02" y2="390.6" fill="none" stroke="#e91d38" stroke-width="6" stroke-miterlimit="10"/><line x1="537.59" y1="256.08" x2="520.99" y2="271.53" fill="none" stroke="#e91d38" stroke-width="6" stroke-miterlimit="10"/><line x1="272.91" y1="519.19" x2="260.36" y2="530.95" fill="none" stroke="#e91d38" stroke-width="6" stroke-miterlimit="10"/><line x1="322.71" y1="472.85" x2="293.02" y2="500.48" fill="none" stroke="#e91d38" stroke-width="6" stroke-miterlimit="10"/><line x1="391.77" y1="408.59" x2="347.42" y2="449.94" fill="none" stroke="#e91d38" stroke-width="6" stroke-miterlimit="10"/><line x1="538.37" y1="272.19" x2="518" y2="291.08" fill="none" stroke="#e91d38" stroke-width="6" stroke-miterlimit="10"/><line x1="546.66" y1="264.47" x2="538.37" y2="272.19" fill="none" stroke="#e91d38" stroke-width="6" stroke-miterlimit="10"/><line x1="331.76" y1="481.26" x2="297.07" y2="513.54" fill="none" stroke="#e91d38" stroke-width="6" stroke-miterlimit="10"/><line x1="373.23" y1="442.67" x2="349.6" y2="464.66" fill="none" stroke="#e91d38" stroke-width="6" stroke-miterlimit="10"/><line x1="402.64" y1="415.31" x2="390.83" y2="426.3" fill="none" stroke="#e91d38" stroke-width="6" stroke-miterlimit="10"/><line x1="555.74" y1="272.86" x2="539.14" y2="288.3" fill="none" stroke="#e91d38" stroke-width="6" stroke-miterlimit="10"/><line x1="224.73" y1="513.44" x2="263.49" y2="494.2" fill="none" stroke="#e91d38" stroke-width="6" stroke-miterlimit="10"/><line x1="299.03" y1="511.8" x2="278.71" y2="530.62" fill="none" stroke="#e91d38" stroke-width="6" stroke-miterlimit="10"/><line x1="299.03" y1="511.8" x2="272.69" y2="519.48" fill="none" stroke="#e91d38" stroke-width="6" stroke-miterlimit="10"/><line x1="246.02" y1="544.3" x2="272.25" y2="554.65" fill="none" stroke="#e91d38" stroke-width="6" stroke-miterlimit="10"/><line x1="207.08" y1="546.27" x2="228.44" y2="566" fill="none" stroke="#e91d38" stroke-width="6" stroke-miterlimit="10"/><line x1="353.11" y1="410.98" x2="379.09" y2="403.99" fill="none" stroke="#e91d38" stroke-width="6" stroke-miterlimit="10"/><line x1="417.57" y1="400.69" x2="451.25" y2="352.52" fill="none" stroke="#e91d38" stroke-width="6" stroke-miterlimit="10"/><line x1="402.72" y1="415.32" x2="417.6" y2="400.59" fill="none" stroke="#e91d38" stroke-width="6" stroke-miterlimit="10"/><line x1="516.45" y1="275.7" x2="503.84" y2="287.39" fill="none" stroke="#e91d38" stroke-width="6" stroke-miterlimit="10"/><line x1="322.75" y1="472.89" x2="349.64" y2="464.71" fill="none" stroke="#e91d38" stroke-width="6" stroke-miterlimit="10"/><line x1="344.22" y1="402.43" x2="369.56" y2="395.68" fill="none" stroke="#e91d38" stroke-width="6" stroke-miterlimit="10"/><line x1="554.36" y1="257.39" x2="565.96" y2="246.6" fill="none" stroke="#e91d38" stroke-width="6" stroke-miterlimit="10"/><line x1="555.85" y1="222.34" x2="533.84" y2="242.83" fill="none" stroke="#e91d38" stroke-width="6" stroke-miterlimit="10"/><line x1="234.95" y1="572.02" x2="223.12" y2="561.09" fill="none" stroke="#e91d38" stroke-width="6" stroke-miterlimit="10"/><line x1="241.98" y1="561.57" x2="216.86" y2="537.68" fill="none" stroke="#e91d38" stroke-width="6" stroke-miterlimit="10"/><line x1="902.03" y1="508.77" x2="886.45" y2="494.37" fill="none" stroke="#e91d38" stroke-width="6" stroke-miterlimit="10"/><line x1="288.89" y1="616.53" x2="283.36" y2="595.2" fill="none" stroke="#e91d38" stroke-width="6" stroke-miterlimit="10"/></g></g></svg>
