<svg id="eoqBXKvxcSA1" xmlns="http://www.w3.org/2000/svg" xmlns:xlink="http://www.w3.org/1999/xlink" viewBox="0 0 1000 1000" shape-rendering="geometricPrecision" text-rendering="geometricPrecision"><g><g transform="matrix(2.51217 0 0 2.51217-935.165047-846.548228)"><path d="M525.4,537.05c0,32.04-26.81,57.96-60.8,60.23h-8.87l-31.72-33.09v-14.36l36.44,37.82h4.15c28.51-2.28,50.8-23.64,50.8-50.6s-22.28-49.03-50.8-51.3h-30.21v46.4l29.08,30.47v14.36L424,535.83v-59.71h40.6c33.99,2.45,60.8,28.72,60.8,60.93Z" fill="#fff"/><path d="M536.16,474.72h68.73v9.63h-68.73v-9.63Zm10.78,22.15c-.16,8.53-.33,17.07-.49,25.6c19.48.14,38.96.27,58.45.41v9.46h-58.35v57.08h58.16v7.88h-68.55v-74.42c-.02-8.67-.03-17.34-.05-26.01h10.83Z" fill="#fff"/><path d="M660.17,574.64l-5.91,15.26L614.9,474.89h10.95l34.31,99.75Zm58.4-99.75L667.96,597.28h-11.14l50.8-122.39h10.95Z" fill="#fff"/></g></g></svg>
