<?xml version="1.0" encoding="UTF-8"?>
<svg id="Layer_1" data-name="Layer 1" xmlns="http://www.w3.org/2000/svg" viewBox="0 0 1978 704">
  <defs>
    <style>
      .cls-1 {
        font-family: Netron, Netron;
        font-size: 36.31px;
      }

      .cls-2, .cls-3 {
        fill: #fff;
      }

      .cls-4 {
        fill: #e91d38;
      }

      .cls-5 {
        stroke-width: 6px;
      }

      .cls-5, .cls-3, .cls-6 {
        stroke-miterlimit: 10;
      }

      .cls-5, .cls-6 {
        fill: none;
        stroke: #e91d38;
      }

      .cls-3 {
        stroke: #fff;
      }

      .cls-3, .cls-6 {
        stroke-linecap: round;
        stroke-width: 10px;
      }
    </style>
  </defs>
  <g>
    <g>
      <line class="cls-5" x1="588.1" y1="505.83" x2="588.07" y2="551.95"/>
      <line class="cls-5" x1="588.07" y1="348.23" x2="588.1" y2="417.44"/>
      <line class="cls-5" x1="588.07" y1="286.43" x2="588.07" y2="320.75"/>
      <line class="cls-5" x1="588.07" y1="255.71" x2="588.07" y2="286.43"/>
      <line class="cls-5" x1="588.07" y1="212.72" x2="588.07" y2="239.21"/>
      <line class="cls-5" x1="575.06" y1="167.68" x2="588.13" y2="167.68"/>
      <line class="cls-5" x1="617.38" y1="143.92" x2="572.08" y2="143.92"/>
      <line class="cls-5" x1="600.93" y1="397.34" x2="600.94" y2="348.47"/>
      <line class="cls-5" x1="600.93" y1="408" x2="600.93" y2="385.65"/>
      <line class="cls-5" x1="600.88" y1="261.29" x2="600.88" y2="305.87"/>
      <line class="cls-5" x1="586" y1="178.37" x2="586" y2="204.16"/>
      <line class="cls-5" x1="600.94" y1="120.16" x2="571.05" y2="120.16"/>
      <line class="cls-5" x1="613.69" y1="490.03" x2="613.69" y2="543.97"/>
      <line class="cls-5" x1="613.69" y1="353.51" x2="613.69" y2="393.24"/>
      <line class="cls-5" x1="613.69" y1="280.48" x2="613.69" y2="307.91"/>
      <line class="cls-5" x1="613.69" y1="221.88" x2="613.69" y2="262.65"/>
      <line class="cls-5" x1="626.7" y1="118" x2="626.76" y2="136.72"/>
      <line class="cls-5" x1="626.5" y1="512.95" x2="626.5" y2="543.97"/>
      <line class="cls-5" x1="626.5" y1="477.62" x2="626.57" y2="494.16"/>
      <line class="cls-5" x1="626.5" y1="321.47" x2="626.57" y2="379.8"/>
      <line class="cls-5" x1="626.57" y1="155.8" x2="626.5" y2="177.29"/>
      <line class="cls-5" x1="626.57" y1="145.96" x2="626.57" y2="155.8"/>
      <line class="cls-5" x1="639.31" y1="515.92" x2="639.31" y2="543.97"/>
      <line class="cls-5" x1="639.19" y1="369.66" x2="639.41" y2="342.18"/>
      <line class="cls-5" x1="639.31" y1="319.12" x2="639.31" y2="334.64"/>
      <line class="cls-5" x1="626.57" y1="177.34" x2="639.38" y2="243.47"/>
      <line class="cls-5" x1="639.38" y1="159.34" x2="639.38" y2="192.65"/>
      <line class="cls-5" x1="639.31" y1="118" x2="639.38" y2="153.4"/>
      <line class="cls-5" x1="639.41" y1="472.19" x2="639.38" y2="490.8"/>
      <line class="cls-5" x1="626.57" y1="513" x2="639.38" y2="498.72"/>
      <line class="cls-5" x1="600.94" y1="543.97" x2="600.94" y2="513"/>
      <line class="cls-5" x1="600.94" y1="348.47" x2="614.01" y2="326.51"/>
      <line class="cls-5" x1="639.38" y1="301.31" x2="626.57" y2="245.15"/>
      <line class="cls-5" x1="639.38" y1="319.07" x2="639.38" y2="301.31"/>
      <line class="cls-5" x1="613.76" y1="221.87" x2="600.94" y2="181.54"/>
      <line class="cls-5" x1="613.76" y1="151.9" x2="613.76" y2="181.54"/>
      <line class="cls-5" x1="600.94" y1="255.71" x2="600.94" y2="243.47"/>
      <line class="cls-5" x1="588.13" y1="255.71" x2="600.23" y2="244.49"/>
      <line class="cls-5" x1="588.13" y1="348.23" x2="600.94" y2="326.87"/>
      <line class="cls-5" x1="149.16" y1="120.04" x2="115.74" y2="120.1"/>
      <line class="cls-5" x1="236.74" y1="132.04" x2="201.93" y2="120.1"/>
      <line class="cls-5" x1="254.21" y1="120.1" x2="235.7" y2="120.1"/>
      <line class="cls-5" x1="326.81" y1="120.1" x2="265.98" y2="120.1"/>
      <line class="cls-5" x1="393.46" y1="120.1" x2="356.45" y2="120.1"/>
      <line class="cls-5" x1="554.96" y1="120.1" x2="500.75" y2="120.08"/>
      <line class="cls-5" x1="566.88" y1="120.1" x2="554.96" y2="120.1"/>
      <line class="cls-5" x1="575.09" y1="120.1" x2="566.88" y2="120.1"/>
      <line class="cls-5" x1="255.65" y1="131.98" x2="326.55" y2="132.04"/>
      <line class="cls-5" x1="244.26" y1="131.98" x2="255.65" y2="131.98"/>
      <line class="cls-5" x1="407.64" y1="131.97" x2="372.49" y2="131.98"/>
      <line class="cls-5" x1="534.83" y1="131.98" x2="528.07" y2="131.98"/>
      <line class="cls-5" x1="575.09" y1="131.98" x2="534.83" y2="131.98"/>
      <line class="cls-5" x1="142.69" y1="143.8" x2="116.67" y2="143.8"/>
      <line class="cls-5" x1="247.46" y1="143.86" x2="196.23" y2="143.86"/>
      <line class="cls-5" x1="321.12" y1="143.86" x2="264.56" y2="143.86"/>
      <line class="cls-5" x1="423.56" y1="143.87" x2="370.29" y2="143.86"/>
      <line class="cls-5" x1="575.09" y1="143.86" x2="533.03" y2="143.87"/>
      <line class="cls-5" x1="143.98" y1="155.68" x2="120.17" y2="155.68"/>
      <line class="cls-5" x1="187.28" y1="155.74" x2="169.44" y2="155.8"/>
      <line class="cls-5" x1="257.83" y1="155.74" x2="215.77" y2="155.74"/>
      <line class="cls-5" x1="355.67" y1="155.74" x2="292.78" y2="155.8"/>
      <line class="cls-5" x1="257.8" y1="167.62" x2="208.66" y2="167.62"/>
      <line class="cls-5" x1="316.55" y1="167.62" x2="283.07" y2="167.62"/>
      <line class="cls-5" x1="358.21" y1="167.62" x2="341.47" y2="167.62"/>
      <line class="cls-5" x1="575.09" y1="167.62" x2="556.47" y2="167.66"/>
      <line class="cls-5" x1="165.08" y1="120.16" x2="199.73" y2="131.92"/>
      <line class="cls-5" x1="211.37" y1="167.68" x2="173.07" y2="167.68"/>
      <line class="cls-5" x1="211.37" y1="167.68" x2="186.91" y2="155.8"/>
      <line class="cls-5" x1="149.13" y1="155.8" x2="164.53" y2="167.68"/>
      <line class="cls-5" x1="149.16" y1="155.8" x2="149.13" y2="132.04"/>
      <line class="cls-5" x1="326.55" y1="132.04" x2="350.24" y2="144.16"/>
      <line class="cls-5" x1="377.41" y1="167.68" x2="437.98" y2="155.8"/>
      <line class="cls-5" x1="358.26" y1="167.68" x2="377.41" y2="167.68"/>
      <line class="cls-5" x1="257.83" y1="155.8" x2="283.07" y2="167.68"/>
      <line class="cls-5" x1="326.81" y1="120.16" x2="349.85" y2="132.04"/>
      <line class="cls-5" x1="547.85" y1="155.76" x2="602.37" y2="155.8"/>
      <line class="cls-5" x1="613.76" y1="132.04" x2="582.57" y2="132.04"/>
      <line class="cls-5" x1="171.45" y1="197.39" x2="171.45" y2="173.32"/>
      <line class="cls-5" x1="171.45" y1="369.06" x2="171.45" y2="303.42"/>
      <line class="cls-5" x1="171.45" y1="430.86" x2="171.45" y2="396.54"/>
      <line class="cls-5" x1="171.45" y1="461.58" x2="171.45" y2="430.86"/>
      <line class="cls-5" x1="171.45" y1="504.57" x2="171.45" y2="478.08"/>
      <line class="cls-5" x1="184.46" y1="549.61" x2="171.38" y2="549.61"/>
      <line class="cls-5" x1="142.14" y1="573.37" x2="187.43" y2="573.37"/>
      <line class="cls-5" x1="158.63" y1="324.13" x2="158.57" y2="368.82"/>
      <line class="cls-5" x1="158.63" y1="310.8" x2="158.63" y2="334.59"/>
      <line class="cls-5" x1="158.64" y1="456" x2="158.64" y2="411.42"/>
      <line class="cls-5" x1="173.52" y1="538.92" x2="173.46" y2="516.36"/>
      <line class="cls-5" x1="158.57" y1="597.13" x2="188.47" y2="597.13"/>
      <line class="cls-5" x1="145.8" y1="220.36" x2="145.83" y2="173.32"/>
      <line class="cls-5" x1="145.83" y1="363.77" x2="145.8" y2="320.03"/>
      <line class="cls-5" x1="145.82" y1="436.81" x2="145.82" y2="409.38"/>
      <line class="cls-5" x1="145.83" y1="495.41" x2="145.83" y2="454.64"/>
      <line class="cls-5" x1="132.82" y1="599.29" x2="132.75" y2="580.57"/>
      <line class="cls-5" x1="133.01" y1="204.34" x2="133.01" y2="173.32"/>
      <line class="cls-5" x1="132.97" y1="231.64" x2="132.97" y2="213.18"/>
      <line class="cls-5" x1="133.01" y1="395.82" x2="132.95" y2="337.49"/>
      <line class="cls-5" x1="132.95" y1="561.49" x2="133.01" y2="540"/>
      <line class="cls-5" x1="132.95" y1="571.33" x2="132.95" y2="561.49"/>
      <line class="cls-5" x1="120.2" y1="201.37" x2="120.2" y2="173.32"/>
      <line class="cls-5" x1="120.15" y1="369.04" x2="120.15" y2="341.97"/>
      <line class="cls-5" x1="120.2" y1="398.17" x2="120.2" y2="382.65"/>
      <line class="cls-5" x1="132.95" y1="539.95" x2="120.14" y2="473.82"/>
      <line class="cls-5" x1="120.14" y1="557.95" x2="120.14" y2="524.64"/>
      <line class="cls-5" x1="120.2" y1="599.29" x2="120.14" y2="563.89"/>
      <line class="cls-5" x1="120.15" y1="241.48" x2="120.14" y2="226.49"/>
      <line class="cls-5" x1="132.95" y1="204.28" x2="120.14" y2="218.57"/>
      <line class="cls-5" x1="158.57" y1="173.32" x2="158.57" y2="204.28"/>
      <line class="cls-5" x1="158.57" y1="368.82" x2="145.5" y2="390.78"/>
      <line class="cls-5" x1="120.14" y1="415.98" x2="132.95" y2="472.14"/>
      <line class="cls-5" x1="120.14" y1="398.22" x2="120.14" y2="415.98"/>
      <line class="cls-5" x1="145.76" y1="495.42" x2="158.57" y2="535.75"/>
      <line class="cls-5" x1="145.76" y1="565.39" x2="145.76" y2="535.75"/>
      <line class="cls-5" x1="171.38" y1="504.54" x2="158.57" y2="484.02"/>
      <line class="cls-5" x1="158.57" y1="461.58" x2="158.57" y2="473.82"/>
      <line class="cls-5" x1="171.38" y1="461.58" x2="159.28" y2="472.8"/>
      <line class="cls-5" x1="171.38" y1="369.06" x2="158.57" y2="390.42"/>
      <line class="cls-5" x1="599" y1="597.19" x2="643.78" y2="597.19"/>
      <line class="cls-5" x1="522.78" y1="585.25" x2="557.59" y2="597.19"/>
      <line class="cls-5" x1="505.31" y1="597.19" x2="523.81" y2="597.19"/>
      <line class="cls-5" x1="432.7" y1="597.19" x2="493.53" y2="597.19"/>
      <line class="cls-5" x1="367.83" y1="597.29" x2="403.07" y2="597.19"/>
      <line class="cls-5" x1="204.55" y1="597.19" x2="238.93" y2="597.19"/>
      <line class="cls-5" x1="192.63" y1="597.19" x2="204.55" y2="597.19"/>
      <line class="cls-5" x1="184.42" y1="597.19" x2="192.63" y2="597.19"/>
      <line class="cls-5" x1="503.86" y1="585.31" x2="432.96" y2="585.25"/>
      <line class="cls-5" x1="515.26" y1="585.31" x2="503.86" y2="585.31"/>
      <line class="cls-5" x1="345.94" y1="585.4" x2="387.02" y2="585.31"/>
      <line class="cls-5" x1="224.68" y1="585.31" x2="231.45" y2="585.31"/>
      <line class="cls-5" x1="184.42" y1="585.31" x2="224.68" y2="585.31"/>
      <line class="cls-5" x1="569.75" y1="573.43" x2="615.31" y2="573.43"/>
      <line class="cls-5" x1="512.05" y1="573.43" x2="563.28" y2="573.43"/>
      <line class="cls-5" x1="438.4" y1="573.43" x2="494.96" y2="573.43"/>
      <line class="cls-5" x1="339.08" y1="572.07" x2="389.22" y2="573.43"/>
      <line class="cls-5" x1="184.42" y1="573.43" x2="221.65" y2="573.5"/>
      <line class="cls-5" x1="572.23" y1="561.55" x2="590.07" y2="561.49"/>
      <line class="cls-5" x1="501.68" y1="561.55" x2="543.74" y2="561.55"/>
      <line class="cls-5" x1="403.85" y1="561.55" x2="466.74" y2="561.49"/>
      <line class="cls-5" x1="184.42" y1="561.55" x2="206.39" y2="561.61"/>
      <line class="cls-5" x1="501.72" y1="549.67" x2="550.86" y2="549.67"/>
      <line class="cls-5" x1="442.97" y1="549.67" x2="476.44" y2="549.67"/>
      <line class="cls-5" x1="401.3" y1="549.67" x2="418.04" y2="549.67"/>
      <line class="cls-5" x1="335.99" y1="546.84" x2="311.22" y2="548.28"/>
      <line class="cls-5" x1="184.42" y1="549.67" x2="207.94" y2="549.67"/>
      <line class="cls-5" x1="601.85" y1="597.25" x2="559.79" y2="585.37"/>
      <line class="cls-5" x1="548.14" y1="549.61" x2="576.87" y2="549.67"/>
      <line class="cls-5" x1="548.14" y1="549.61" x2="572.6" y2="561.49"/>
      <line class="cls-5" x1="610.39" y1="561.49" x2="599.78" y2="536.95"/>
      <line class="cls-5" x1="639.38" y1="585.67" x2="639.38" y2="557.71"/>
      <line class="cls-5" x1="432.96" y1="585.25" x2="409.28" y2="573.13"/>
      <line class="cls-5" x1="382.1" y1="549.61" x2="321.54" y2="561.49"/>
      <line class="cls-5" x1="401.26" y1="549.61" x2="382.1" y2="549.61"/>
      <line class="cls-5" x1="335.77" y1="607.54" x2="321.27" y2="594.11"/>
      <line class="cls-5" x1="501.68" y1="561.49" x2="476.45" y2="549.61"/>
      <line class="cls-5" x1="432.7" y1="597.13" x2="409.67" y2="585.25"/>
      <line class="cls-5" x1="173.58" y1="561.49" x2="157.15" y2="561.49"/>
      <line class="cls-5" x1="145.76" y1="585.25" x2="176.95" y2="585.25"/>
      <line class="cls-5" x1="639.38" y1="549.19" x2="639.38" y2="564.67"/>
      <line class="cls-5" x1="626.44" y1="551.95" x2="625.92" y2="585.31"/>
      <line class="cls-5" x1="120.17" y1="155.68" x2="120.17" y2="176.08"/>
      <line class="cls-5" x1="102.45" y1="374.99" x2="85.06" y2="359.01"/>
      <line class="cls-5" x1="194.67" y1="460.3" x2="179.41" y2="446.15"/>
      <line class="cls-5" x1="240.66" y1="502.81" x2="197.58" y2="463"/>
      <line class="cls-5" x1="287.87" y1="546.45" x2="261.65" y2="522.21"/>
      <line class="cls-5" x1="311.34" y1="568.13" x2="287.87" y2="546.45"/>
      <line class="cls-5" x1="344.17" y1="598.47" x2="323.94" y2="579.78"/>
      <line class="cls-5" x1="387.75" y1="621.72" x2="378.53" y2="630.31"/>
      <line class="cls-5" x1="376.03" y1="666.29" x2="408" y2="636.54"/>
      <line class="cls-5" x1="196.22" y1="478.55" x2="231.39" y2="511.1"/>
      <line class="cls-5" x1="184.06" y1="467.27" x2="198.65" y2="480.81"/>
      <line class="cls-5" x1="298.03" y1="572.6" x2="263.98" y2="541.13"/>
      <line class="cls-5" x1="371.87" y1="621.36" x2="354.6" y2="605.48"/>
      <line class="cls-5" x1="405.78" y1="672.27" x2="426.89" y2="652.64"/>
      <line class="cls-5" x1="114.27" y1="419.55" x2="73.07" y2="381.48"/>
      <line class="cls-5" x1="218.54" y1="515.92" x2="185.61" y2="485.52"/>
      <line class="cls-5" x1="274.33" y1="567.47" x2="253.37" y2="548.11"/>
      <line class="cls-5" x1="319.09" y1="608.84" x2="287.95" y2="580.06"/>
      <line class="cls-5" x1="389.25" y1="690.71" x2="374.91" y2="677.54"/>
      <line class="cls-5" x1="87.72" y1="411.78" x2="64.03" y2="389.89"/>
      <line class="cls-5" x1="233.97" y1="546.95" x2="189.38" y2="505.82"/>
      <line class="cls-5" x1="360.47" y1="663.94" x2="344.1" y2="648.73"/>
      <line class="cls-5" x1="367.99" y1="670.89" x2="360.47" y2="663.94"/>
      <line class="cls-5" x1="76.4" y1="418.1" x2="54.98" y2="398.31"/>
      <line class="cls-5" x1="205.01" y1="537.05" x2="184.5" y2="517.93"/>
      <line class="cls-5" x1="226.73" y1="557.03" x2="214.87" y2="546.07"/>
      <line class="cls-5" x1="344.02" y1="648.74" x2="299.5" y2="626"/>
      <line class="cls-5" x1="288.44" y1="614.11" x2="268.54" y2="595.44"/>
      <line class="cls-5" x1="380.35" y1="699" x2="327.21" y2="649.73"/>
      <line class="cls-5" x1="87.63" y1="411.79" x2="89.49" y2="430.29"/>
      <line class="cls-5" x1="82.07" y1="373.1" x2="105.72" y2="394.96"/>
      <line class="cls-5" x1="231.39" y1="511.1" x2="238.94" y2="535.19"/>
      <line class="cls-5" x1="240.28" y1="569.64" x2="292.23" y2="600.87"/>
      <line class="cls-5" x1="226.72" y1="557.1" x2="240.28" y2="569.64"/>
      <line class="cls-5" x1="319.05" y1="608.89" x2="358.9" y2="628.94"/>
      <line class="cls-5" x1="372.49" y1="658.28" x2="349.85" y2="637.36"/>
      <line class="cls-5" x1="307.55" y1="581.71" x2="321.17" y2="594.21"/>
      <line class="cls-5" x1="311.29" y1="568.17" x2="336.65" y2="591.55"/>
      <line class="cls-5" x1="240.62" y1="502.86" x2="247.89" y2="526.35"/>
      <line class="cls-5" x1="724.79" y1="375.61" x2="748.34" y2="353.62"/>
      <line class="cls-5" x1="653.8" y1="424.67" x2="687.5" y2="410.23"/>
      <line class="cls-5" x1="650.59" y1="444.57" x2="663.65" y2="432.42"/>
      <line class="cls-5" x1="599.34" y1="492.26" x2="642.28" y2="452.3"/>
      <line class="cls-5" x1="552.29" y1="536.04" x2="578.42" y2="511.72"/>
      <line class="cls-5" x1="438.29" y1="642.11" x2="462.55" y2="619.54"/>
      <line class="cls-5" x1="429.87" y1="649.94" x2="438.29" y2="642.11"/>
      <line class="cls-5" x1="424.08" y1="655.34" x2="429.87" y2="649.94"/>
      <line class="cls-5" x1="640.49" y1="437.14" x2="590.4" y2="483.66"/>
      <line class="cls-5" x1="648.54" y1="429.65" x2="640.49" y2="437.14"/>
      <line class="cls-5" x1="534.14" y1="536.18" x2="558.02" y2="513.88"/>
      <line class="cls-5" x1="443.42" y1="620.51" x2="448.11" y2="616.16"/>
      <line class="cls-5" x1="415" y1="646.95" x2="443.42" y2="620.51"/>
      <line class="cls-5" x1="711.21" y1="354.59" x2="729.57" y2="337.5"/>
      <line class="cls-5" x1="637.2" y1="423.37" x2="673.37" y2="389.72"/>
      <line class="cls-5" x1="585.21" y1="471.75" x2="625.14" y2="434.6"/>
      <line class="cls-5" x1="517.99" y1="534.33" x2="550.49" y2="504.05"/>
      <line class="cls-5" x1="397.08" y1="647.38" x2="431.97" y2="614.93"/>
      <line class="cls-5" x1="701.22" y1="347.05" x2="718.03" y2="331.41"/>
      <line class="cls-5" x1="670.61" y1="375.45" x2="683.16" y2="363.69"/>
      <line class="cls-5" x1="620.81" y1="421.79" x2="650.5" y2="394.17"/>
      <line class="cls-5" x1="551.74" y1="486.05" x2="596.1" y2="444.7"/>
      <line class="cls-5" x1="611.76" y1="413.38" x2="646.45" y2="381.11"/>
      <line class="cls-5" x1="570.29" y1="451.97" x2="593.92" y2="429.98"/>
      <line class="cls-5" x1="540.87" y1="479.34" x2="552.69" y2="468.34"/>
      <line class="cls-5" x1="501.63" y1="508.29" x2="483.24" y2="532.88"/>
      <line class="cls-5" x1="380.26" y1="629.99" x2="396.86" y2="614.55"/>
      <line class="cls-5" x1="713.46" y1="385.99" x2="680.02" y2="400.44"/>
      <line class="cls-5" x1="644.48" y1="382.85" x2="671.52" y2="357.69"/>
      <line class="cls-5" x1="644.48" y1="382.85" x2="670.82" y2="375.17"/>
      <line class="cls-5" x1="697.5" y1="350.35" x2="677.55" y2="352.08"/>
      <line class="cls-5" x1="697.48" y1="350.37" x2="715.65" y2="367.12"/>
      <line class="cls-5" x1="590.4" y1="483.66" x2="564.43" y2="490.66"/>
      <line class="cls-5" x1="527.28" y1="491.91" x2="497.65" y2="534.33"/>
      <line class="cls-5" x1="540.8" y1="479.33" x2="527.28" y2="491.91"/>
      <line class="cls-5" x1="528.86" y1="557.75" x2="511.75" y2="557.78"/>
      <line class="cls-5" x1="620.76" y1="421.75" x2="593.87" y2="429.94"/>
      <line class="cls-5" x1="599.29" y1="492.22" x2="573.96" y2="498.96"/>
      <line class="cls-5" x1="424.45" y1="606.52" x2="383.97" y2="640.46"/>
      <line class="cls-5" x1="387.66" y1="672.3" x2="409.68" y2="651.82"/>
      <line class="cls-5" x1="651.13" y1="336.84" x2="668.36" y2="352.64"/>
      <line class="cls-5" x1="565.76" y1="257.89" x2="577.71" y2="268.96"/>
      <line class="cls-5" x1="518.85" y1="214.47" x2="561.94" y2="254.29"/>
      <line class="cls-5" x1="471.64" y1="170.84" x2="497.86" y2="195.07"/>
      <line class="cls-5" x1="448.18" y1="149.16" x2="471.64" y2="170.84"/>
      <line class="cls-5" x1="415.35" y1="118.82" x2="435.57" y2="137.51"/>
      <line class="cls-5" x1="371.76" y1="95.56" x2="380.99" y2="86.98"/>
      <line class="cls-5" x1="383.49" y1="50.99" x2="351.51" y2="80.75"/>
      <line class="cls-5" x1="578.3" y1="252.64" x2="528.13" y2="206.19"/>
      <line class="cls-5" x1="461.49" y1="144.69" x2="495.54" y2="176.15"/>
      <line class="cls-5" x1="387.65" y1="95.93" x2="404.92" y2="111.81"/>
      <line class="cls-5" x1="353.73" y1="45.02" x2="332.63" y2="64.65"/>
      <line class="cls-5" x1="645.25" y1="297.74" x2="686.45" y2="335.81"/>
      <line class="cls-5" x1="540.97" y1="201.37" x2="577.93" y2="235.54"/>
      <line class="cls-5" x1="485.19" y1="149.82" x2="506.14" y2="169.18"/>
      <line class="cls-5" x1="440.43" y1="108.45" x2="471.57" y2="137.23"/>
      <line class="cls-5" x1="370.26" y1="26.58" x2="384.61" y2="39.75"/>
      <line class="cls-5" x1="671.8" y1="305.5" x2="695.49" y2="327.4"/>
      <line class="cls-5" x1="525.54" y1="170.34" x2="570.14" y2="211.47"/>
      <line class="cls-5" x1="399.05" y1="53.35" x2="415.41" y2="68.56"/>
      <line class="cls-5" x1="391.53" y1="46.4" x2="399.05" y2="53.35"/>
      <line class="cls-5" x1="683.11" y1="299.19" x2="704.53" y2="318.98"/>
      <line class="cls-5" x1="555.04" y1="180.68" x2="575.05" y2="199.24"/>
      <line class="cls-5" x1="532.79" y1="160.26" x2="544.64" y2="171.22"/>
      <line class="cls-5" x1="415.5" y1="68.55" x2="475.05" y2="106.82"/>
      <line class="cls-5" x1="410.79" y1="47.43" x2="436.23" y2="70.94"/>
      <line class="cls-5" x1="379.17" y1="18.29" x2="406.26" y2="43.24"/>
      <line class="cls-5" x1="650.02" y1="268.55" x2="679.99" y2="296.34"/>
      <line class="cls-5" x1="663.95" y1="298.08" x2="644.94" y2="280.45"/>
      <line class="cls-5" x1="677.45" y1="344.19" x2="653.8" y2="322.33"/>
      <line class="cls-5" x1="528.13" y1="206.19" x2="520.58" y2="182.1"/>
      <line class="cls-5" x1="519.23" y1="147.65" x2="467.29" y2="116.42"/>
      <line class="cls-5" x1="532.8" y1="160.19" x2="519.23" y2="147.65"/>
      <line class="cls-5" x1="440.46" y1="108.4" x2="400.62" y2="88.35"/>
      <line class="cls-5" x1="387.02" y1="59.01" x2="409.66" y2="79.93"/>
      <line class="cls-5" x1="457.27" y1="140.7" x2="447.92" y2="132.06"/>
      <line class="cls-5" x1="448.22" y1="149.12" x2="448.2" y2="133.25"/>
      <line class="cls-5" x1="518.9" y1="214.43" x2="511.63" y2="190.94"/>
      <line class="cls-5" x1="42.79" y1="334.26" x2="11.18" y2="363.67"/>
      <line class="cls-5" x1="105.71" y1="292.62" x2="72.02" y2="307.06"/>
      <line class="cls-5" x1="108.93" y1="272.72" x2="95.86" y2="284.87"/>
      <line class="cls-5" x1="160.18" y1="225.03" x2="117.24" y2="264.98"/>
      <line class="cls-5" x1="207.28" y1="181.19" x2="181.1" y2="205.56"/>
      <line class="cls-5" x1="321.23" y1="75.18" x2="284.68" y2="109.21"/>
      <line class="cls-5" x1="329.64" y1="67.35" x2="321.23" y2="75.18"/>
      <line class="cls-5" x1="335.44" y1="61.95" x2="329.64" y2="67.35"/>
      <line class="cls-5" x1="119.02" y1="280.15" x2="169.11" y2="233.63"/>
      <line class="cls-5" x1="110.98" y1="287.64" x2="119.02" y2="280.15"/>
      <line class="cls-5" x1="228.51" y1="178.32" x2="201.5" y2="203.41"/>
      <line class="cls-5" x1="316.1" y1="96.78" x2="303.48" y2="108.39"/>
      <line class="cls-5" x1="344.51" y1="70.34" x2="316.1" y2="96.78"/>
      <line class="cls-5" x1="81.58" y1="331.82" x2="49.42" y2="361.74"/>
      <line class="cls-5" x1="122.31" y1="293.92" x2="86.15" y2="327.57"/>
      <line class="cls-5" x1="174.31" y1="245.54" x2="134.38" y2="282.69"/>
      <line class="cls-5" x1="229.9" y1="193.81" x2="209.02" y2="213.24"/>
      <line class="cls-5" x1="353.59" y1="78.73" x2="336.99" y2="94.17"/>
      <line class="cls-5" x1="88.91" y1="341.83" x2="76.36" y2="353.59"/>
      <line class="cls-5" x1="138.71" y1="295.5" x2="109.02" y2="323.12"/>
      <line class="cls-5" x1="207.77" y1="231.23" x2="163.42" y2="272.59"/>
      <line class="cls-5" x1="354.37" y1="94.84" x2="334" y2="113.72"/>
      <line class="cls-5" x1="362.66" y1="87.11" x2="354.37" y2="94.84"/>
      <line class="cls-5" x1="147.76" y1="303.91" x2="113.07" y2="336.18"/>
      <line class="cls-5" x1="189.23" y1="265.32" x2="165.6" y2="287.3"/>
      <line class="cls-5" x1="218.64" y1="237.95" x2="206.83" y2="248.95"/>
      <line class="cls-5" x1="371.74" y1="95.5" x2="355.14" y2="110.94"/>
      <line class="cls-5" x1="40.73" y1="336.09" x2="79.49" y2="316.85"/>
      <line class="cls-5" x1="115.03" y1="334.44" x2="94.71" y2="353.27"/>
      <line class="cls-5" x1="115.03" y1="334.44" x2="88.69" y2="342.12"/>
      <line class="cls-5" x1="62.02" y1="366.94" x2="88.25" y2="377.29"/>
      <line class="cls-5" x1="23.08" y1="368.91" x2="44.44" y2="388.65"/>
      <line class="cls-5" x1="169.11" y1="233.63" x2="195.09" y2="226.63"/>
      <line class="cls-5" x1="233.57" y1="223.33" x2="267.25" y2="175.16"/>
      <line class="cls-5" x1="218.72" y1="237.96" x2="233.6" y2="223.23"/>
      <line class="cls-5" x1="332.45" y1="98.34" x2="319.84" y2="110.03"/>
      <line class="cls-5" x1="138.75" y1="295.54" x2="165.64" y2="287.35"/>
      <line class="cls-5" x1="160.22" y1="225.07" x2="185.56" y2="218.33"/>
      <line class="cls-5" x1="370.36" y1="80.04" x2="381.96" y2="69.24"/>
      <line class="cls-5" x1="371.85" y1="44.99" x2="349.84" y2="65.47"/>
      <line class="cls-5" x1="50.95" y1="394.66" x2="39.12" y2="383.74"/>
      <line class="cls-5" x1="57.98" y1="384.22" x2="32.86" y2="360.32"/>
      <line class="cls-5" x1="718.03" y1="331.41" x2="702.45" y2="317.01"/>
      <line class="cls-5" x1="104.89" y1="439.18" x2="99.36" y2="417.85"/>
    </g>
    <g>
      <path class="cls-2" d="M341.4,359.7c0,32.04-26.81,57.96-60.8,60.23h-8.87l-31.72-33.09v-14.36l36.44,37.82h4.15c28.51-2.28,50.8-23.64,50.8-50.6s-22.28-49.03-50.8-51.3h-30.21v46.4l29.08,30.47v14.36l-39.47-41.15v-59.71h40.6c33.99,2.45,60.8,28.72,60.8,60.93Z"/>
      <path class="cls-2" d="M352.16,297.36h68.73v9.63h-68.73v-9.63Zm10.78,22.15c-.16,8.53-.33,17.07-.49,25.6,19.48,.14,38.96,.27,58.45,.41v9.46h-58.35v57.08h58.16v7.88h-68.55v-74.42c-.02-8.67-.03-17.34-.05-26.01h10.83Z"/>
      <path class="cls-2" d="M476.17,397.29l-5.91,15.26-39.36-115.01h10.95l34.31,99.75Zm58.4-99.75l-50.61,122.39h-11.14l50.8-122.39h10.95Z"/>
    </g>
  </g>
  <g>
    <g>
      <path class="cls-2" d="M963.68,411.51h-16.43l-60.05-156.02-60.05,156.02h-16.43l69.96-181.76h13.31l69.68,181.76Z"/>
      <path class="cls-2" d="M1164.78,314.86l.28,62.51c-20.68,20.49-46.45,34.14-78.17,34.14-54.66,0-98.85-40.97-98.85-91.67s44.19-91.4,98.85-91.4c15.86,0,30.87,3.41,43.9,9.72l-5.1,13.4c-11.61-5.78-24.92-9.19-38.8-9.19-46.17,0-83.55,34.93-83.55,77.48s37.39,77.48,83.55,77.48c24.92,0,47.3-9.98,62.6-26v-56.47h15.3Zm-93.47,0h65.71v14.45h-65.71v-14.45Z"/>
      <path class="cls-2" d="M1217.17,227.66h103.1v14.45h-103.1v-14.45Zm103.1,72.23v14.18h-87.52v85.63h87.24v11.82h-102.82v-111.63h103.1Z"/>
      <path class="cls-4" d="M1485.96,353.99l-100.55-104.27v161.79h-15.3V228.18h15.3l100.55,104.27v21.54Zm-47.58-30.21l63.45,66.19V228.18h15.58v183.33h-15.58l-63.45-65.93v-21.8Z"/>
      <path class="cls-2" d="M1726.42,373.17l12.75,8.14c-18.13,18.39-44.47,30.21-73.36,30.21-54.66,0-98.85-40.97-98.85-91.67s44.19-91.4,98.85-91.4c13.88,0,27.19,2.63,39.37,7.62l-7.08,12.61c-9.91-3.94-20.96-6.3-32.29-6.3-46.17,0-83.55,34.93-83.55,77.48s37.39,77.48,83.55,77.48c23.79,0,45.32-9.19,60.61-24.16Z"/>
      <path class="cls-2" d="M1769.76,227.92l41.64,44.39-8.5,12.87-53.81-57.26h20.68Zm108.76,0l-48.43,74.86v108.48h-15.58v-112.68l45.88-70.65h18.13Z"/>
      <rect class="cls-2" x="1217.14" y="260.75" width="15.23" height="45.67"/>
    </g>
    <g>
      <text class="cls-1" transform="translate(810.73 482.26)"><tspan class="cls-4" x="0" y="0">Elkarakhi </tspan><tspan class="cls-2" x="283.3" y="0">Website Development Agency</tspan></text>
      <g>
        <g>
          <line class="cls-6" x1="1092.24" y1="440.7" x2="1931.11" y2="440.7"/>
          <path class="cls-4" d="M1929.23,478.3c20.76,0,37.6-16.84,37.6-37.6s-16.84-37.6-37.6-37.6-37.6,16.84-37.6,37.6,16.84,37.6,37.6,37.6Z"/>
        </g>
        <line class="cls-3" x1="810.76" y1="440.7" x2="1071.97" y2="440.7"/>
      </g>
    </g>
  </g>
</svg>