<?xml version="1.0" encoding="UTF-8"?>
<svg id="Layer_1" data-name="Layer 1" xmlns="http://www.w3.org/2000/svg" viewBox="0 0 352.55 722.11">
  <defs>
    <style>
      .cls-1 {
        fill: #fff;
      }
    </style>
  </defs>
  <path class="cls-1" d="M314.15,681.59c-3.77-9.4-14.49-13.99-23.89-10.22-9.4,3.77-13.99,14.48-10.22,23.89,3.77,9.4,14.49,13.99,23.89,10.22,9.4-3.77,13.99-14.48,10.22-23.89-3.77-9.4,3.77,9.4,0,0Zm-30.1,12.06c-2.88-7.2,.62-15.39,7.82-18.28,7.2-2.88,15.39,.62,18.28,7.82,2.88,7.2-.62,15.4-7.82,18.28-7.2,2.88-15.39-.62-18.28-7.82-2.88-7.2,2.89,7.2,0,0Z"/>
  <g>
    <polygon class="cls-1" points="24.84 36.19 45.26 87.13 87.32 105.12 119.99 186.63 96.75 240.95 119.48 297.67 148.39 310.04 294.51 674.61 289.51 676.61 144.22 314.12 115.31 301.76 90.91 240.88 114.15 186.56 83.15 109.2 41.09 91.21 19.84 38.19 24.84 36.19"/>
    <g>
      <path class="cls-1" d="M37.74,32.01c-3.33-8.31-12.77-12.35-21.08-9.02-8.31,3.33-12.35,12.77-9.02,21.08,3.33,8.31,12.77,12.35,21.08,9.02,8.31-3.33,12.35-12.77,9.02-21.08Z"/>
      <path class="cls-1" d="M39.74,31.21c3.77,9.4-.82,20.12-10.22,23.89-9.4,3.77-20.12-.82-23.89-10.22-3.77-9.4,.82-20.12,10.22-23.89,9.4-3.77,20.12,.82,23.89,10.22,3.77,9.4-3.77-9.4,0,0Zm-30.1,12.06c2.88,7.2,11.08,10.7,18.28,7.82,7.2-2.88,10.7-11.08,7.82-18.28-2.89-7.2-11.08-10.7-18.28-7.82-7.2,2.88-10.7,11.08-7.82,18.28,2.88,7.2-2.88-7.2,0,0Z"/>
    </g>
  </g>
</svg>